/* XPM */
static char *result[] = {
/* columns rows colors chars-per-pixel */
"16 16 175 2 ",
"   c #161824",
".  c #1B1D26",
"X  c #1C202C",
"o  c #1F222F",
"O  c #212531",
"+  c #242733",
"@  c #272934",
"#  c #262935",
"$  c #272A36",
"%  c #282B37",
"&  c #292C38",
"*  c #2A2C38",
"=  c #2A2D39",
"-  c #2B2E3A",
";  c #2B2F3A",
":  c #2C2F3A",
">  c #2C2F3B",
",  c #2D313B",
"<  c #2F323B",
"1  c #2E323E",
"2  c #2F323E",
"3  c #30333E",
"4  c #30333F",
"5  c #31343F",
"6  c #3C3A3B",
"7  c #3B3C3F",
"8  c #3C3D3F",
"9  c #473C29",
"0  c #473E2E",
"q  c #413F3B",
"w  c #504128",
"e  c #52452B",
"r  c #52452D",
"t  c #484034",
"y  c #45443F",
"u  c #51493A",
"i  c #504A3E",
"p  c #564F3C",
"a  c #5B513E",
"s  c #72592D",
"d  c #735A2E",
"f  c #6F5B36",
"g  c #6F5C37",
"h  c #645539",
"j  c #67573C",
"k  c #6F5F39",
"l  c #7B6635",
"z  c #7B6636",
"x  c #7F6B37",
"c  c #70603A",
"v  c #313540",
"b  c #323540",
"n  c #333641",
"m  c #333741",
"M  c #343842",
"N  c #353842",
"B  c #353843",
"V  c #363842",
"C  c #363944",
"Z  c #373A45",
"A  c #3F3F42",
"S  c #383B45",
"D  c #383B46",
"F  c #383C46",
"G  c #393C46",
"H  c #3B3D47",
"J  c #3B3E49",
"K  c #3C3F49",
"L  c #3D414B",
"P  c #434141",
"I  c #404142",
"U  c #434242",
"Y  c #454241",
"T  c #424344",
"R  c #424346",
"E  c #474644",
"W  c #4D4B42",
"Q  c #4A4845",
"!  c #474849",
"~  c #47484A",
"^  c #4A4A4B",
"/  c #4E4C49",
"(  c #4F4D49",
")  c #554F41",
"_  c #514D45",
"`  c #524F44",
"'  c #565142",
"]  c #5A564F",
"[  c #494C50",
"{  c #4B4D50",
"}  c #5C5951",
"|  c #655B47",
" . c #6E5F40",
".. c #635B49",
"X. c #655C48",
"o. c #675E48",
"O. c #68624D",
"+. c #69624E",
"@. c #7F6C43",
"#. c #676150",
"$. c #6C6453",
"%. c #666258",
"&. c #726B59",
"*. c #706F5D",
"=. c #73715F",
"-. c #74735F",
";. c #686860",
":. c #6F6C60",
">. c #6F6D65",
",. c #696C6B",
"<. c #6F6F68",
"1. c #6A6C6D",
"2. c #696C6E",
"3. c #6B6D6F",
"4. c #6B6E6F",
"5. c #757460",
"6. c #747167",
"7. c #777467",
"8. c #767767",
"9. c #777767",
"0. c #76746B",
"q. c #70716D",
"w. c #76776E",
"e. c #7A786C",
"r. c #7E7D6E",
"t. c #7F7F74",
"y. c #757B79",
"u. c #777C7A",
"i. c #797E7C",
"p. c #797F7E",
"a. c #806B37",
"s. c #856E3A",
"d. c #806C44",
"f. c #80734D",
"g. c #81734D",
"h. c #817657",
"j. c #817757",
"k. c #877852",
"l. c #857D60",
"z. c #847F62",
"x. c #847F63",
"c. c #8C8260",
"v. c #969474",
"b. c #979475",
"n. c #A19978",
"m. c #A49B78",
"M. c #B5A473",
"N. c #BDAA71",
"B. c #DDB14D",
"V. c #C0A258",
"C. c #D6B057",
"Z. c #DDB350",
"A. c #E4BB56",
"S. c #E7BE57",
"D. c #CBAF68",
"F. c #CCB374",
"G. c #D4BC7B",
"H. c #E6C36A",
"J. c #E9C469",
"K. c #E4C775",
"L. c #DBC482",
"P. c #CCC293",
"I. c #E5CF8D",
"U. c #F9D982",
"Y. c #F0D589",
"T. c #FFE48D",
"R. c #FFE593",
"E. c #FFEB97",
"W. c #FFE9A1",
"Q. c #FFEFA1",
"!. c #FFFCBA",
"~. c #FFFFBE",
"^. c #FFFFBF",
"/. c #FFFFC7",
"(. c None",
/* pixels */
"(.(.(.(.(.(.i.r.7.1.(.(.(.(.(.(.",
"(.(.(.(.:.c z x a.l k %.(.(.(.(.",
"(.(.(.+.f.) E V S / ' g.O.(.(.(.",
"(.(.*.z.R a ..Q Z G J ~ x.=.(.(.",
"(.;.v.{ $ H.E.m.b 4 D B [ b.<.(.",
"(.o.$.1 > W./.n.M M v > S #.o.(.",
"y.f 6 3 5 !.Q.D.s.t n m v P g 2.",
"e.s 2 X B Y.U.A.Z.J.&.& H ; d 6.",
"0.@.N B O C.S.k.l.I.P.Z * 3 d.t.",
"3.h.I L # K.T..   y q o K T j.p.",
"(.-.9.+ C M.~.V.F.^.N.F - 8.5.(.",
"(.>.c.^ % A G.B.R.L.Y = ! c.w.(.",
"(.(.|  .U b @ i ] % , P  .X.(.(.",
"(.(.(.j w 0 8 : < 7 _ r h (.(.(.",
"(.(.(.(.} 9 u ` e p W ( (.(.(.(.",
"(.(.(.(.(.(.4.q.,.u.(.(.(.(.(.(."
};
