/* XPM */
static char *result[] = {
/* columns rows colors chars-per-pixel */
"64 64 221 2 ",
"   c #0E111D",
".  c #12141E",
"X  c #18191F",
"o  c #111422",
"O  c #151925",
"+  c #1A1C24",
"@  c #1A1D2A",
"#  c #171A28",
"$  c #0F1320",
"%  c #1E212D",
"&  c #1F2027",
"*  c #1F2330",
"=  c #252323",
"-  c #292524",
";  c #23242A",
":  c #2C2B2C",
">  c #2C2927",
",  c #322C24",
"<  c #312E2C",
"1  c #382F24",
"2  c #39342A",
"3  c #222632",
"4  c #262935",
"5  c #292C36",
"6  c #2A2E39",
"7  c #2E313C",
"8  c #2F3133",
"9  c #333333",
"0  c #3C3933",
"q  c #31343E",
"w  c #3E3D3A",
"e  c #383736",
"r  c #211E20",
"t  c #423B2C",
"y  c #483C27",
"u  c #423D34",
"i  c #4D422C",
"p  c #594928",
"a  c #4B4434",
"s  c #47433A",
"d  c #554A36",
"f  c #5B513A",
"g  c #624E29",
"h  c #69542C",
"j  c #745D2B",
"k  c #695938",
"l  c #735E36",
"z  c #796538",
"x  c #79622F",
"c  c #333641",
"v  c #363944",
"b  c #393C46",
"n  c #3B3E49",
"m  c #3E414B",
"M  c #454541",
"N  c #42444E",
"B  c #474948",
"V  c #585548",
"C  c #444751",
"Z  c #464952",
"A  c #4A4D55",
"S  c #4C4F58",
"D  c #4E5159",
"F  c #4F5155",
"G  c #51545C",
"H  c #56595E",
"J  c #505155",
"K  c #524E41",
"L  c #655D48",
"P  c #605D53",
"I  c #786A48",
"U  c #676454",
"Y  c #746B51",
"T  c #7C755A",
"R  c #72684C",
"E  c #565961",
"W  c #5A5D64",
"Q  c #555760",
"!  c #5E6166",
"~  c #5E6168",
"^  c #62656B",
"/  c #65696B",
"(  c #6A6D72",
")  c #676A70",
"_  c #6E7175",
"`  c #6F7278",
"'  c #73757A",
"]  c #76787A",
"[  c #7B7A65",
"{  c #5F6052",
"}  c #85662B",
"|  c #886B35",
" . c #8C7337",
".. c #987737",
"X. c #9B792D",
"o. c #A67C2F",
"O. c #A57D34",
"+. c #8A7649",
"@. c #967C46",
"#. c #8A7D59",
"$. c #826F41",
"%. c #837C62",
"&. c #AC863B",
"*. c #A68639",
"=. c #BA9439",
"-. c #B88F37",
";. c #CB9E3A",
":. c #D1A33B",
">. c #D9AB3C",
",. c #CFA037",
"<. c #98814A",
"1. c #9A8758",
"2. c #8B815F",
"3. c #A88B47",
"4. c #BA9649",
"5. c #AA945B",
"6. c #B59A55",
"7. c #AB8E4E",
"8. c #88856A",
"9. c #928A68",
"0. c #9C926B",
"q. c #858478",
"w. c #989676",
"e. c #8F9074",
"r. c #AB9966",
"t. c #A69D75",
"y. c #B59C61",
"u. c #B6A268",
"i. c #ABA278",
"p. c #B7A876",
"a. c #BDA051",
"s. c #C39C42",
"d. c #D7AA44",
"f. c #DDB14C",
"g. c #C4A558",
"h. c #DEB351",
"j. c #CBA64B",
"k. c #E3B74A",
"l. c #E5BB54",
"z. c #E4BB5A",
"x. c #E3B854",
"c. c #C6AB67",
"v. c #C7B378",
"b. c #CFB670",
"n. c #E7BF61",
"m. c #ECC25B",
"M. c #DBC47D",
"N. c #EAC364",
"B. c #ECC669",
"V. c #F2CC6B",
"C. c #F0C966",
"Z. c #EBCB75",
"A. c #F1CD74",
"S. c #F0CF78",
"D. c #F6D274",
"F. c #F5D37C",
"G. c #FAD77C",
"H. c #EED17F",
"J. c #7B7E82",
"K. c #7E8385",
"L. c #8A8C8D",
"P. c #858688",
"I. c #8E918E",
"U. c #929595",
"Y. c #9C9E9E",
"T. c #969898",
"R. c #8E9091",
"E. c #9CA29F",
"W. c #B9B386",
"Q. c #AEAA83",
"!. c #9E9FA0",
"~. c #9EA3A1",
"^. c #A3A5A4",
"/. c #A9ADAA",
"(. c #A7AAA7",
"). c #ADB1AF",
"_. c #B1B5B2",
"`. c #B9BCB9",
"'. c #AFB3B0",
"]. c #C3B682",
"[. c #D1BC80",
"{. c #BDC3BD",
"}. c #DBC887",
"|. c #CAC698",
" X c #D5CA97",
".X c #D7CC91",
"XX c #F6D682",
"oX c #FBDB85",
"OX c #FCDE8A",
"+X c #F4D88A",
"@X c #E9DB9A",
"#X c #E3CE8B",
"$X c #FFE28C",
"%X c #FFE492",
"&X c #FFEC9B",
"*X c #FFE995",
"=X c #FFF09F",
"-X c #CFCFA2",
";X c #DBD6A4",
":X c #E7DDA1",
">X c #FFEFA0",
",X c #F3E8AC",
"<X c #FFF3A4",
"1X c #FFFAAD",
"2X c #FFF6AA",
"3X c #FFFEB3",
"4X c #FFFEBB",
"5X c #F7F4B8",
"6X c #ECE7B0",
"7X c #BFC1C0",
"8X c #C4CBC4",
"9X c #C3C9C3",
"0X c #CBD4CC",
"qX c #D1DAD2",
"wX c #CFD8D0",
"eX c #D9E4DA",
"rX c #D6E0D7",
"tX c #FFFFC4",
"yX c #FFFFCB",
"uX c #FFFFD3",
"iX c None",
/* pixels */
"iXiXiXiXiXiXiXiXiXiXiXiXiXiXiXiXiXiXiXiXiXiXiXiXiXiXiXiXiXiXiXiXiXiXiXiXiXiXiXiXiXiXiXiXiXiXiXiXiXiXiXiXiXiXiXiXiXiXiXiXiXiXiXiX",
"iXiXiXiXiXiXiXiXiXiXiXiXiXiXiXiXiXiXiXiXiXiXiXiXiXiXiXeXeXeXeXrX0X0X{.{.{.iXiXiXiXiXiXiXiXiXiXiXiXiXiXiXiXiXiXiXiXiXiXiXiXiXiXiX",
"iXiXiXiXiXiXiXiXiXiXiXiXiXiXiXiXiXiXiXiXiXiX0XwXwX8X~.K./ G m w m m B H _ I.)._.)./.iXiXiXiXiXiXiXiXiXiXiXiXiXiXiXiXiXiXiXiXiXiX",
"iXiXiXiXiXiXiXiXiXiXiXiXiXiXiXiXiXiXiXiX8X8X~./ 7 . X , i p h j j h g i , X   8 H I./.(.iXiXiXiXiXiXiXiXiXiXiXiXiXiXiXiXiXiXiXiX",
"iXiXiXiXiXiXiXiXiXiXiXiXiXiXiXiXiXiX{._._ 5 . t x *.=. .h p i =.=.y p h  .=.*.j y . ; ! T.^.iXiXiXiXiXiXiXiXiXiXiXiXiXiXiXiXiXiX",
"iXiXiXiXiXiXiXiXiXiXiXiXiXiXiXiX{.{.! o - x *.x i | s.i p  .= =.=.r <.p i ;. .y x *.x > & H T.~.iXiXiXiXiXiXiXiXiXiXiXiXiXiXiXiX",
"iXiXiXiXiXiXiXiXiXiXiXiXiXiX'._._ @ - <.j.*.& f k i z , z j.t = = t j.z 2 z t k f r 3.s. .< & ~ E.Y.iXiXiXiXiXiXiXiXiXiXiXiXiXiX",
"iXiXiXiXiXiXiXiXiXiXiXiXiX/.T.q & z 3.a a.j.- a.a.t l <.a.a.3.3.3.*.a.a.<.k 0 j.a.- g.a.a 3.z + q I.E.iXiXiXiXiXiXiXiXiXiXiXiXiX",
"iXiXiXiXiXiXiXiXiXiXiXiX^.' O a 6.d < d i 2 2 6.g.+.f < O o O # @ O $ O : f +.g.6.u 2 a d 2 f 6.a O _ Y.iXiXiXiXiXiXiXiXiXiXiXiX",
"iXiXiXiXiXiXiXiXiXiXiXY.H X $.b.y.& c.b.f y.1.u + 4 c n Q W Z Z G m ! m S v 4 X s 1.y.f b.c.r y.b.I . H E.iXiXiXiXiXiXiXiXiXiXiX",
"iXiXiXiXiXiXiXiXiXiXT.Z O 5.I u.M.2 I M.1.: & m J S n c b N n c m A m m b m A A v & 8 1.Z.Y 0 b.y.I 5.O Z Y.iXiXiXiXiXiXiXiXiXiX",
"iXiXiXiXiXiXiXiXiXI.B & u.V s : 0 I p.w % m m m 6 Z N c c N c c m m m m ~ D Z m m A m & s p.Y 2 < s V u.& A Y.iXiXiXiXiXiXiXiXiX",
"iXiXiXiXiXiXiXiXI.F + p.{ K #X0.t.1.# b S N q 6 7 3 3 5 3 4 N c q m m m m ! m m S m v Z b # 9.t.0.#Xf { p.& G Y.iXiXiXiXiXiXiXiX",
"iXiXiXiXiXiXiXP.{ . i.@Xp.8 W.@XP @ m 7 % O Z n 6 ^ Z 4 b N O b 7 m q A m 7 m m Z v v m m W # U @X].8 p.@Xi.. _ Y.iXiXiXiXiXiXiX",
"iXiXiXiXiXiXq._ O 8.e.W.W.8 |.K 4 Q ^ 3 - , , < < < 8 < 9 9 # v . A 4 6 A # m m v v v m m 7 D 4 K |.9 W.W.e.8.O L.Y.iXiXiXiXiXiX",
"iXiXiXiXiXiXJ.4 F W.9 8 : -XV 7 Q c O $ &.k.l.m.C.V.G.oX$X&Xw % ! q o ~ O 6 c m 4 m 4 Q 6 v A C 4 V -X8 9 7 W.V 7 !.iXiXiXiXiXiX",
"iXiXiXiXiXP.J % -Xq -X6X-X^ 4 b c # o @ 3.l.C.C.D.G.$X*X&X<Xw 3 v # n S o W * @ ^ # W 4 b c c n ! 6 / |.6X-X5 -X% ! ~.iXiXiXiXiX",
"iXiXiXiXiXq.O w.].8 %.5Xw.# Z c W b Q c 4.N.V.D.G.$X*X=X1X3XM o Z n @ v o D c o C c c c D # S n 3 S * w.5X8.8 |.e.# T.iXiXiXiXiX",
"iXiXiXiXT.Z e :X:XQ.c [.# ^ N ( O o b $ 6.D.G.oX$X&X<X3X3XtXM 4 R.* o c c c c @ n @ S 4 @ J.# c m m A & |.e Q.:X@Xe D ^.iXiXiXiX",
"iXiXiXiXI.o 0.V %.u Q.M C S 4 # o 4 c   g.G.oX*X=X<X3X4XyXuXM 4 v # o * R.$ o ) c o 4 J.o v c c * m m m s Q.s T V 0.O Y.iXiXiXiX",
"iXiXiX^.{ < i.e Y V 0.% n o v o o J.S % p.$X*X<X1X3XtXyXuXuXw o @ n o G A # o ~ S o o n n * c * ' O 6 ) % w.V U 0 t.: ~ (.iXiXiX",
"iXiXiX(.3 T d 1.[.}.9 n 3 6 A C A K.o o v.*X<X1X4XyXuXuXyXtXw o o ~ S # # C # n * n * v o C Q o m m 7 % C 8 Z.M.1.f T ; (.iXiXiX",
"iXiX`.I.O u.s : #.1.@ A c R.v o o m $ $ v.2X3XtXyXuXuXtX4X1Xw o * '.c   o n J.o   c J.# o o K.4 % 6 m G m % 1.2.: s u.X L./.iXiX",
"iXiX{.! t c.c.f +.M b J.4 c o o 3 c $ $ .X4XtXyXuXyXtX3X2X<Xw b Z @ n $ o A P.o $ o Y.v o o n c c c $ G v v a #.f c.c.0 H '.iXiX",
"iXiX8X7 I I +.: 6.O Q c o c o o c 7 v *  XyXuXuXyX4X3X>X&X%X0 3 o o C o c n 3 N o * m b c o n o 6 L.o c 3 ` O 6.: +.I I 5 _.iXiX",
"iXiX{.  @.= y y $.5 c o @ c o 4 U.L.6 o ;XuXuXtX3X1X>X&X$XXX+.R I V t o 4 o o n c G o o n S c $ o Q N 5 o S 4 $.a i = @.  (.iXiX",
"iXiXE.X ..1 4.s.y c 6 o v ( Q m m 4 o o ;XuXtX4X1X&X%XOXF.A.B.N.x.h.d.;.| < o o T.E o o o T.Z $ o n # ~ 6 4 v d s.4.1 ..+ I.iXiX",
"iXeXK., l = g &.< c c v J.S o o 4 c o o  X4X1X<X&X%X+XF.A.B.z.x.d.d.d.;.:.d.| # E ~ o o o E C c o m o c ` 3 c > &.h = l , ' `.iX",
"iXeX/ y X.} r ..+ n L.c 4 % o o # m o o |.2X>X*XOXXXS.V.N.z.h.d.d.,.;.d.f.x.z.g.> % G o b 4 o N S c o * 6 Q n o ..= } o.y H -XiX",
"iXrXJ i o.o.r X.o ( Z o 3 6 o o o S o o ].&X%XoXXXA.V.C.x.d.:.:.;.,.d.f.x.z.n.B.b.; 6 W Q o o o L.S   c @ N ^ o X.= o.o.y A 8XiX",
"iXwXN g i - X ..O S 6 o # v o o o J.E 3 v.OXXXF.F.>X&XD.l.l.m.l.d.d.h.x.n.B.S.XXOXp.o U.J.  o o G S 4 v o 3 Q # ..X - y g m 0XiX",
"iX0Xm h 2  .&...@ c 7 o o n o 3 ~ `.c $ v.XXS.S.3XyXV.d.l.m.D.$X>XoXz.n.V.F.+X$X*X,XP c C c o * b o Z ~ o 4 7 % ..O. .2 k n 0XiX",
"iX8Xv l t  .3.@.@ c c o o P.~ S o m 3 $ u.A.B.G.%Xl.>.k.m.A.OX&X3XyX2XA.F.+X$X&X<X3X:XO o Z v S o o o /.@ 6 5 @ @.7.@.t h b wXiX",
"iX9Xm k d , + 7.o v c * W ~.% o o o A o 6.N.f.N.k.>.k.m.A.H.#.M w [ ,XOXOX*X>X2X3XtXyXJ o o P.' o o 4 c G 6 c o 3.r > d k N qXiX",
"iX9XA f g.g.> 5.o m D K.# c % o o o G o 7.h.:.:.>.k.l.D.Z.9 o o o o * [.&X2X1X4XyXuXuXt.o o ) ) % o m o 4 J.v   6.: g.g.k H eXiX",
"iX-XW d y.1.> y.# ~ Q b o # n o o o S 5 7.n.d.>.k.l.V.oXL o   o o o o 9 T %.%.%.8.q.8.H o D 3 o ~ % b o @ ) n + y.: #.c.a ( eXiX",
"iX7XJ.5 #.: R c.6 ' o 6 o o Z o o 6 P.m 6.XXz.f.l.C.G.$X& o o o $ o o o o o o o o o o $ 4 v o $ # `.% o v % W 9 b.R > 2.9 P.eXiX",
"iXiXL.O u.0 M.}.P c @ c O o m S ~ D o # u.&XN.l.C.G.%X&Xo o o o o $ o o o o $ o o o o o o o o o 3 ` S o c O Q P }.M.0 u.O ~.iXiX",
"iXiX/.$ i.= V V 0.4 q O c % ` (.O o o o p.4XC.C.D.$X<X3X< o o o $ o o o o o o o $ o o o 6 # o $ S o C S # c 4 w.V V ; i.. 8XiXiX",
"iXiX_.5 #.9.t.5 [.O Z o L.^ # C o o o o 0.uXD.D.$X=X3XyX#.o o   o o # L [.#X:X6X,X@X}.2.@ ^ o m % o # ^.$ C o [.: t.9.#.7 wXiXiX",
"iXiX'.E M @X:XU w.V b ( Q 7 o # n o o o V 4XoXoX&X3XtXuXXXl o o $ o V XX>X3XyXuX3X<X$XI $ 6 T.m o o v D 3 n V e.U :X:Xs / wXiXiX",
"iXiX/.L.O ;XV 9 w.W.@ ` o c $ o C # o 4 % @X%X&X1XtXuXtX&Xd.-. .+.c.XX%X1XtXuXtX2X%XF.: $ c !.n o % c O J.# W.Q.e V ;Xo ~.0XiXiX",
"iXiXiX/.3 e.U Q.4X4Xe b @ @ 7 o O P.~ S o #.%X1XtXuXtX1X*Xz.d.x.n.XXOX<X4XuXtX3X*XoX5.$ 6 S o ~ O n o 3 ~ c 4X4XQ.{ e.4 8XiXiXiX",
"iXiXiX/.! 9 W.m T H Q.# C o b v W K.n o o & M.4XuXyX1X&X+XZ.l.N.A.OX>X4XyXuX3X&X$XA.< 7 m o o 4 /.o O m % Q.{ [ w W.e _ 8XiXiXiX",
"iXiXiXiXE.o i.V %.w W.M c c Q U.o o Z o o   d 4XyX3X>XOXA.n.f.B.>X>X1XyXuX4X2X%XD.k ` Q $ o $ m J.# 4 c B W.w T V w.# _.iXiXiXiX",
"iXiXiXiX^.G 9 .X#Xt.8 ].# ) D * 4 o @ n o o $ Y 3X>XOXS.n.f.d.:.B.4X4X2X>X+XV.h.z 3 ) G $ o b * @ ~ m # v.e i.#X#X9 ! {.iXiXiXiX",
"iXiXiXiXiXT.O 2.p.: Y }.%.@ n @ c # o c W Q C o L +XF.N.h.d.:.d.z.B.+XOXXXS.S.k $ o o D b b % $ 7 ] @ 8.}.Y : i.2.& ).iXiXiXiXiX",
"iXiXiXiXiX~.! & r.: u.v.r.V 4 n o n C Q P.6 o o o 5 7.h.d.,.d.z.n.XX%X<X4X;XB o $ o o ; 7X3 o 4 m 4 V r.p.u.: u.& ( {.iXiXiXiXiX",
"iXiXiXiXiXiX~.q a 1., > > r.u 5 D ^ ( o o n # o o o # < j &.h.N.F.+X}.t.B o S @ o o 7 n 6 C 3 v 4 s r.- : : 1.u q _.iXiXiXiXiXiX",
"iXiXiXiXiXiXE.L.o I I 1.1.- 5.u 5 D O c o o m % c Z Q W # o o @ % % 4 o o o # ^ 7 b 3 o O L.b 3 u 5.- 1.3.I R O T.'.iXiXiXiXiXiX",
"iXiXiXiXiXiXiXE.( X +.g.6.+ @.g.d @ Z ; b c S Y.c o o O G O o @ C P.E o   o # ^ U.    * 7 E @ d g.@.+ 7.g.+.X ' /.iXiXiXiXiXiXiX",
"iXiXiXiXiXiXiXiXY.H X @.4.k = l 4.z . n ^ G # o n # o o @ T.G c O o N c * v c o C C 4 c c o l 4.k > l 4.@.X H ^.iXiXiXiXiXiXiXiX",
"iXiXiXiXiXiXiXiXiX!.A X ..3., y -.z . - % v m ; # W H b c 3 S O o O c L.S o   % 6 J.c # < . | 4.a , 4. .X Z !.iXiXiXiXiXiXiXiXiX",
"iXiXiXiXiXiXiXiXiXiXY.A O | &.&.o.X X o.j - + F W 4 5 5 $ O 4 J.n 6 o $ ~ v 7 n c @   d 7.+ + ..&.&.} X B T.iXiXiXiXiXiXiXiXiXiX",
"iXiXiXiXiXiXiXiXiXiXiX!.H . h o.1   y j r X.X 1 o 3 c A ^ N 7 6 ~ N n n Z n 3 + ; i.#.& k y   1 O.g . F I.iXiXiXiXiXiXiXiXiXiXiX",
"iXiXiXiXiXiXiXiXiXiXiXiX!.( + -   r } g } x .  .z u L + .   o # # o $ , 1 . K  X; P v.1.l ...   - O ^ P.iXiXiXiXiXiXiXiXiXiXiXiX",
"iXiXiXiXiXiXiXiXiXiXiXiXiX!.L.q   g } r g 1 X X.. 0 5.+   u p.1.@.+ } h z +.o p.5 $ t.= d O., . 5 ` P.iXiXiXiXiXiXiXiXiXiXiXiXiX",
"iXiXiXiXiXiXiXiXiXiXiXiXiXiX!.!.^ O - j } X 1 x   f L .   W.8   k -  .    5.; U Y $ L 5.+   O J ] q.iXiXiXiXiXiXiXiXiXiXiXiXiXiX",
"iXiXiXiXiXiXiXiXiXiXiXiXiXiXiXiX^.T.G # . o X.p . +.0 5 ;  XX   $ + ..  . 1.: u  Xe 0 5 o A q.P.iXiXiXiXiXiXiXiXiXiXiXiXiXiXiXiX",
"iXiXiXiXiXiXiXiXiXiXiXiXiXiXiXiXiXiX^.Y.U 3 . X - 7.1.i.w i.V r @.O } g g 1.o 6 M o ; W L.T.iXiXiXiXiXiXiXiXiXiXiXiXiXiXiXiXiXiX",
"iXiXiXiXiXiXiXiXiXiXiXiXiXiXiXiXiXiXiXiX(./.L.H 6 $ O w . & T #.i   . t t o . 6 W R./.(.iXiXiXiXiXiXiXiXiXiXiXiXiXiXiXiXiXiXiXiX",
"iXiXiXiXiXiXiXiXiXiXiXiXiXiXiXiXiXiXiXiXiXiX/.'._./.L._ W A m b b N J ) P.!.{.9X-XiXiXiXiXiXiXiXiXiXiXiXiXiXiXiXiXiXiXiXiXiXiXiX",
"iXiXiXiXiXiXiXiXiXiXiXiXiXiXiXiXiXiXiXiXiXiXiXiXiXiXiX{.{.9X8X8X0XwXqXeXeXiXiXiXiXiXiXiXiXiXiXiXiXiXiXiXiXiXiXiXiXiXiXiXiXiXiXiX",
"iXiXiXiXiXiXiXiXiXiXiXiXiXiXiXiXiXiXiXiXiXiXiXiXiXiXiXiXiXiXiXiXiXiXiXiXiXiXiXiXiXiXiXiXiXiXiXiXiXiXiXiXiXiXiXiXiXiXiXiXiXiXiXiX"
};
