/* XPM */
static char *result[] = {
/* columns rows colors chars-per-pixel */
"32 32 182 2 ",
"   c #1A1A1F",
".  c #111422",
"X  c #161926",
"o  c #1A1E2B",
"O  c #1D212D",
"+  c #23242C",
"@  c #2B2B2C",
"#  c #312D29",
"$  c #3E392F",
"%  c #3C3428",
"&  c #222632",
"*  c #262935",
"=  c #2B2C34",
"-  c #2B2E39",
";  c #2D313C",
":  c #2F3032",
">  c #323235",
",  c #3A3635",
"<  c #3B3836",
"1  c #31343E",
"2  c #3A3A3C",
"3  c #473C2A",
"4  c #403F3F",
"5  c #504124",
"6  c #51432A",
"7  c #5D4C2C",
"8  c #584827",
"9  c #45423D",
"0  c #4A463D",
"q  c #4D493E",
"w  c #4F4633",
"e  c #554A33",
"r  c #544D3D",
"t  c #5C523C",
"y  c #614E2A",
"u  c #6C582C",
"i  c #6B5327",
"p  c #6A5C37",
"a  c #63593E",
"s  c #6C5C39",
"d  c #745D33",
"f  c #79632F",
"g  c #7A6234",
"h  c #7D693F",
"j  c #323640",
"k  c #363944",
"l  c #393C46",
"z  c #3C3F49",
"x  c #3E414B",
"c  c #3E4046",
"v  c #4C4A45",
"b  c #41444E",
"n  c #4D4E4C",
"m  c #454644",
"M  c #544E41",
"N  c #565249",
"B  c #59574C",
"V  c #555245",
"C  c #434650",
"Z  c #464952",
"A  c #494C55",
"S  c #4E5158",
"D  c #515353",
"F  c #53555B",
"G  c #5A5D5C",
"H  c #585A55",
"J  c #665C44",
"K  c #695C41",
"L  c #625C4A",
"P  c #6D6144",
"I  c #67634F",
"U  c #6D644B",
"Y  c #736544",
"T  c #766944",
"R  c #7D6A42",
"E  c #746A4D",
"W  c #756748",
"Q  c #7F714F",
"!  c #676657",
"~  c #6E6955",
"^  c #6A6A58",
"/  c #696453",
"(  c #746B51",
")  c #77745E",
"_  c #7B745A",
"`  c #7E785E",
"'  c #565961",
"]  c #5B5D63",
"[  c #5E6165",
"{  c #5F6168",
"}  c #66696D",
"|  c #64666A",
" . c #7D7A63",
".. c #797A67",
"X. c #696C72",
"o. c #6F7475",
"O. c #757A7C",
"+. c #797B7E",
"@. c #9C752F",
"#. c #826C3E",
"$. c #8C763F",
"%. c #987935",
"&. c #977A34",
"*. c #A17F3D",
"=. c #806C41",
"-. c #85754D",
";. c #927D4B",
":. c #877856",
">. c #827D63",
",. c #A2803E",
"<. c #D1A33C",
"1. c #97895C",
"2. c #978456",
"3. c #AF924A",
"4. c #BE9E4C",
"5. c #B89C5B",
"6. c #808068",
"7. c #888568",
"8. c #938D6C",
"9. c #978C65",
"0. c #9A916B",
"q. c #918F71",
"w. c #9B9474",
"e. c #A39364",
"r. c #B2A16E",
"t. c #BCA96F",
"y. c #BEAA70",
"u. c #D6A942",
"i. c #D8AB46",
"p. c #DCB04C",
"a. c #CBA751",
"s. c #DFB552",
"d. c #E3B74A",
"f. c #E5BB54",
"g. c #E5BC5C",
"h. c #E1B752",
"j. c #D5B565",
"k. c #C3B27E",
"l. c #D7BC77",
"z. c #E0BB63",
"x. c #E7C05B",
"c. c #DEC57E",
"v. c #EDC96D",
"b. c #E9C365",
"n. c #F2CD6D",
"m. c #F0CA67",
"M. c #F1CD73",
"N. c #F5D37B",
"B. c #F7D578",
"V. c #86898A",
"C. c #888B8D",
"Z. c #858683",
"A. c #8F9491",
"S. c #9C9E9E",
"D. c #909491",
"F. c #B7B38B",
"G. c #ABA584",
"H. c #9EA4A3",
"J. c #B3B8B5",
"K. c #CABE88",
"L. c #CAC99D",
"P. c #D3CC9E",
"I. c #FEDE87",
"U. c #FCDD89",
"Y. c #F5D785",
"T. c #E7D69A",
"R. c #F0DD9B",
"E. c #E4CA82",
"W. c #FFE38D",
"Q. c #FEE393",
"!. c #FFEC9C",
"~. c #FBE595",
"^. c #FFF3A5",
"/. c #FFFAAD",
"(. c #FAEEB2",
"). c #FFFEB3",
"_. c #FFFFBA",
"`. c #FCF2B6",
"'. c #FFFFC4",
"]. c #FFFFCD",
"[. c #FFFFD1",
"{. c None",
/* pixels */
"{.{.{.{.{.{.{.{.{.{.{.{.{.{.{.{.{.{.{.{.{.{.{.{.{.{.{.{.{.{.{.{.",
"{.{.{.{.{.{.{.{.{.{.{.H.O.G V t r r D } V.{.{.{.{.{.{.{.{.{.{.{.",
"{.{.{.{.{.{.{.{.J.O.v 7 f &.u f f u &.f y 0 } S.{.{.{.{.{.{.{.{.",
"{.{.{.{.{.{.{.V.0 p 4.7 s s 3.s s 3.s s e 4.p 9 +.{.{.{.{.{.{.{.",
"{.{.{.{.{.{.[ P T -.a W a 4 k 1 1 1 9 J Y a -.R P ] {.{.{.{.{.{.",
"{.{.{.{.{.D E J U 1.0 j b l l k b b A Z j 0 1.U J E F {.{.{.{.{.",
"{.{.{.{.F 0.I K.~ 1 1 l k ; 1 1 2 x C x b x x ~ K.I 0.[ {.{.{.{.",
"{.{.{.| ^ ^ ) ! x = g $.;.2.9.= l ; - z j x 1 b ! ) ~ ^ +.{.{.{.",
"{.{.Z.m  .L...k k - a.n.B.!.^.= k l j & z z k x x ..L. .n S.{.{.",
"{.{.[ >.8.>.C z X & j.I.!.).'.2 z o z j - C k ; k l  .0.6.} {.{.",
"{.{.v ( 0.m * k ' * E.^._.].].* j j - k - - - - b k v 0.E v {.{.",
"{.A.W K -.C Z o - . R.'.].'./.> A & - Z o ' . C ; x j Q K W C.{.",
"{.o.p w t j * X ] * `.[._.^.Q.t , = - - - * j * Z - z a e p | {.",
"{.G 7 *., - ] - ; . (.).!.U.M.z.p.<.%.# X.. C j * ; k , 3.6 D {.",
"{.M @.7 j Z * . - . R.Q.Y.v.f.u.<.u.h.z.v l j O ' o k 1 7 @.v {.",
"{.r 6 g - o * X X.; c.N.^.n.f.n.v.g.m.Y.Y.D x X l b o - g 6 r {.",
"{.r e =.* * } j O & j.b.x.d.M.r.F.U.U.!.).w.O { . C j & #.e r {.",
"{.N 5.K j ' o & . j a.u.d.n.K . . q K.K.P.G.& x - * Z * P 5.B {.",
"{.D P t.A & . z l z l.f.m.W.. . . . . . . . & . ' & * D t.U G {.",
"{.} _ L / * F ] . . T.n.W.).> . . + ( .. .L j o * F * ! L _ O.{.",
"{.C.7.) q.A ; . - X w.W.).].j.7 t l.).].^.e.+ X.X j x q.) 7.H.{.",
"{.{.D 6.F.n & - { z > !.].).N.s.N.^.].).I.9 1 - b & H F.6.H {.{.",
"{.{.X.:.8.` l ' X - . ) ).I.b.p.~._.).N.#.[ . - b ; ` 8.>.O.{.{.",
"{.{.H.m U r.U ; * l ' o J j.u.i.v.U.R.Y . & ' X C U r.U v J.{.{.",
"{.{.{.+.V a a t A ; o & & c 6 R :.~ O l & * Z - r J t t V.{.{.{.",
"{.{.{.{.] =.h R p : A Z * . Z ; z l o 1 A & j s R h h | {.{.{.{.",
"{.{.{.{.{.F d d g 3 $ 1 z l O x * l z * z = 3 d d g A {.{.{.{.{.",
"{.{.{.{.{.{.] 5   i i % $ 4 1 + 1 = > B M :.p   5 F {.{.{.{.{.{.",
"{.{.{.{.{.{.{.+.< 5 5 8 @ q 9 L w y Y M : E 3 @ | {.{.{.{.{.{.{.",
"{.{.{.{.{.{.{.{.S.} = 3 t U ) + % y K @ B 2 | Z.{.{.{.{.{.{.{.{.",
"{.{.{.{.{.{.{.{.{.{.{.C.| H k L > m G o.D.{.{.{.{.{.{.{.{.{.{.{.",
"{.{.{.{.{.{.{.{.{.{.{.{.{.{.{.{.{.{.{.{.{.{.{.{.{.{.{.{.{.{.{.{."
};
